# xmcd
#
# Track frame offsets:
#	150
#	33972
#	63218
#	83915
#	96456
#	114038
#	123063
#	140658
#	163448
#	199276
#	222191
#	264959
#
# Disc length: 3544 seconds
#
# Revision: 1
# Processed by: cddbd v1.5.1PL0 Copyright (c) Steve Scherf et al.
# Submitted via: audiograbber 1.80
#
DISCID=a60dd60c
DTITLE=Babyface - MTV unplugged NYC 1997
DYEAR=1900
DGENRE=
TTITLE0=Change The World (with Eric Clapton)
TTITLE1=Talk To Me (with Eric Clapton)
TTITLE2=Whip Appeal 
TTITLE3=Breathe Again (with Shanice Wilson)
TTITLE4=Exhale (Shoop Shoop) (with Beverly Crowder)
TTITLE5=I'll Make Love To You (Medley)
TTITLE6=End Of The Road (Medley)
TTITLE7=I Care About You (with K-Ci and JoJo, Melvin and Kevon Edmonds)
TTITLE8=The Day (That You Gave Me A Son) 
TTITLE9=Gone Too Soon (with Stevie Wonder)
TTITLE10=How Come, How Long (with Stevie Wonder)
TTITLE11=Quatschtrack
EXTD=
EXTT0=
EXTT1=
EXTT2=
EXTT3=
EXTT4=
EXTT5=
EXTT6=
EXTT7=
EXTT8=
EXTT9=
EXTT10=
EXTT11=
PLAYORDER=
